<?xml version="1.0" standalone="no"?>
<!DOCTYPE svg PUBLIC "-//W3C//DTD SVG 20010904//EN"
 "http://www.w3.org/TR/2001/REC-SVG-20010904/DTD/svg10.dtd">
<svg version="1.0" xmlns="http://www.w3.org/2000/svg"
 width="5000.000000pt" height="3333.000000pt" viewBox="0 0 5000.000000 3333.000000"
 preserveAspectRatio="xMidYMid meet">

<g transform="translate(0.000000,3333.000000) scale(0.100000,-0.100000)"
fill="#000000" stroke="none">
<path d="M21200 33287 c0 -61 35 -180 77 -259 19 -37 63 -100 98 -140 34 -40
501 -509 1036 -1043 536 -533 1492 -1487 2126 -2119 634 -632 1150 -1140 1146
-1128 -3 12 -8 20 -12 18 -4 -3 -7 4 -7 15 0 18 2 18 12 5 10 -15 72 -16 573
-16 309 0 566 -2 571 -5 4 -3 11 1 14 7 3 7 3 2 0 -12 -8 -32 99 73 2414 2385
1042 1039 1913 1918 1938 1951 71 99 111 202 129 337 l6 47 -5060 0 -5061 0 0
-43z m5660 -4641 c-7 -7 -13 -7 -20 0 -6 6 -3 10 10 10 13 0 16 -4 10 -10z"/>
<path d="M40994 30848 c-1364 -1366 -2495 -2501 -2511 -2523 -70 -91 -121
-223 -131 -338 -15 -163 23 -324 108 -451 37 -55 706 -729 2854 -2874 1544
-1541 2813 -2802 2822 -2802 8 0 12 -4 9 -10 -3 -6 1 -7 10 -4 11 4 14 2 9 -9
-7 -20 16 -33 27 -16 7 10 8 7 7 -10 -2 -14 3 -26 12 -28 13 -4 13 -3 0 6 -13
9 -12 11 3 11 12 0 17 -6 15 -17 -4 -21 28 -60 39 -49 5 4 0 13 -10 20 -19 14
-24 56 -6 56 6 0 8 -8 5 -18 -8 -24 25 -55 48 -46 15 6 14 10 -10 35 -28 30
-18 42 10 13 15 -14 16 -14 16 0 0 14 57 16 559 16 601 0 576 2 566 -49 -2
-11 2 -24 8 -27 7 -4 9 -4 5 1 -4 4 4 17 18 28 14 11 23 26 20 34 -3 8 -2 11
3 8 5 -3 13 -1 16 5 4 7 -198 10 -648 8 l-655 -3 3 23 c3 28 11 37 20 23 3 -6
1 -11 -4 -11 -6 0 -11 -5 -11 -10 0 -7 218 -10 653 -10 358 0 660 0 670 0 10
0 15 -5 12 -10 -4 -6 -10 -8 -15 -5 -4 3 -13 -2 -20 -10 -7 -8 -9 -15 -4 -15
5 0 1 -5 -8 -11 -10 -5 -23 -20 -30 -32 -6 -12 12 0 40 27 29 28 52 56 52 64
0 7 -4 10 -10 7 -5 -3 -10 2 -10 11 0 16 1 16 18 1 17 -16 22 -13 80 46 35 35
60 66 57 70 -3 4 -2 5 2 2 4 -3 971 958 2150 2137 l2143 2143 0 1660 0 1660
-1878 1878 -1877 1877 -1385 0 -1385 0 -2481 -2482z m3176 -8978 c0 -5 -2 -10
-4 -10 -3 0 -8 5 -11 10 -3 6 -1 10 4 10 6 0 11 -4 11 -10z m1298 -95 c-3 -3
-9 2 -12 12 -6 14 -5 15 5 6 7 -7 10 -15 7 -18z m-1178 0 c20 -24 6 -28 -15
-5 -10 11 -13 20 -8 20 6 0 16 -7 23 -15z"/>
<path d="M47484 32871 c253 -253 464 -457 469 -454 6 3 7 1 4 -4 -4 -6 0 -16
7 -22 10 -8 16 -9 21 -1 3 6 10 8 14 5 5 -2 211 -5 459 -5 302 -1 453 -4 458
-11 7 -12 71 50 619 593 l360 358 -1435 0 -1435 0 459 -459z"/>
<path d="M47993 32373 c0 -7 9 -21 20 -30 15 -13 18 -14 13 -3 -4 9 -2 8 7 -2
8 -10 22 -18 32 -18 14 0 14 3 -6 18 -15 13 -19 21 -10 26 7 5 10 2 9 -6 -2
-11 67 -13 370 -16 251 -1 372 -6 372 -13 0 -5 4 -8 9 -5 5 4 11 2 13 -3 6
-17 59 1 75 26 9 13 13 26 10 30 -4 3 -11 -5 -16 -18 -10 -24 -10 -24 -10 -2
l-1 23 -443 2 c-349 2 -444 0 -444 -9z m807 -13 c0 -6 -129 -10 -366 -10 -241
0 -363 3 -359 10 4 6 137 10 366 10 233 0 359 -4 359 -10z m58 -3 c7 -5 10
-13 6 -18 -4 -6 -10 -6 -18 0 -7 6 -17 7 -21 3 -5 -4 -5 -2 -2 5 4 6 1 14 -5
17 -7 2 -4 4 7 3 11 -2 26 -6 33 -10z"/>
<path d="M48141 32274 c0 -11 3 -14 6 -6 3 7 2 16 -1 19 -3 4 -6 -2 -5 -13z"/>
<path d="M33725 30764 c-39 -7 -112 -34 -165 -60 l-95 -46 -1195 -1197 c-1284
-1284 -1244 -1241 -1291 -1391 -36 -115 -44 -213 -27 -315 20 -117 49 -189
108 -278 36 -53 307 -330 1037 -1057 1228 -1224 1304 -1299 1322 -1292 8 2 11
0 8 -5 -4 -6 1 -19 9 -29 9 -10 13 -13 9 -6 -5 9 77 12 395 12 269 0 399 -3
395 -10 -4 -6 -11 -7 -17 -4 -6 4 -5 -3 2 -16 11 -20 23 -20 26 1 1 5 2 12 3
15 0 4 8 1 16 -6 8 -7 16 -10 16 -6 1 3 3 11 4 16 1 6 3 15 4 20 0 6 9 10 19
9 10 0 12 -3 5 -6 -7 -2 -13 -10 -13 -16 0 -6 16 4 35 23 19 18 31 38 28 43
-3 6 -2 7 4 4 5 -3 527 512 1160 1146 l1151 1152 41 86 c95 199 95 410 0 608
-39 81 -55 99 -263 311 -652 664 -2119 2128 -2171 2167 -158 121 -360 167
-560 127z m552 -5630 c-3 -3 -12 -4 -19 -1 -8 3 -5 6 6 6 11 1 17 -2 13 -5z
m58 -4 c-3 -5 -12 -7 -20 -3 -21 7 -19 13 6 13 11 0 18 -4 14 -10z m-292 -17
c-112 -2 -294 -2 -405 0 -112 1 -21 2 202 2 223 0 314 -1 203 -2z m237 -1 c0
-5 -7 -9 -15 -9 -8 0 -12 4 -9 9 3 4 9 8 15 8 5 0 9 -4 9 -8z"/>
<path d="M26800 28610 c0 -6 -8 -10 -17 -8 -10 1 -24 -1 -32 -6 -8 -5 -12 -5
-8 0 6 10 -992 8 -1002 -2 -3 -3 -1 -5 4 -4 6 1 227 2 492 1 394 -1 485 -4
495 -15 11 -11 14 -11 23 0 8 11 10 8 12 -12 0 -15 -2 -22 -6 -16 -5 9 -145
11 -518 9 -281 -1 -509 1 -507 5 2 3 0 17 -5 30 -7 16 -10 18 -10 6 -1 -9 -7
-18 -13 -21 -10 -3 -10 -8 -2 -17 9 -9 132 -11 513 -10 475 1 501 0 502 -17 0
-11 3 -13 6 -5 2 6 11 12 19 12 12 0 12 -4 4 -21 -7 -12 5 -5 29 18 23 21 36
40 31 41 -7 3 -7 8 0 17 8 9 8 15 0 20 -5 3 -10 1 -10 -5z m0 -39 c0 -6 -4
-13 -10 -16 -5 -3 -10 1 -10 9 0 9 5 16 10 16 6 0 10 -4 10 -9z"/>
<path d="M25810 28518 c0 -4 4 -8 9 -8 6 0 12 4 15 8 3 5 -1 9 -9 9 -8 0 -15
-4 -15 -9z"/>
<path d="M26643 28514 c-3 -8 -2 -19 3 -24 5 -5 9 1 9 16 0 28 -3 30 -12 8z"/>
<path d="M25806 28458 c3 -5 10 -6 15 -3 13 9 11 12 -6 12 -8 0 -12 -4 -9 -9z"/>
<path d="M47905 23108 c-1584 -1586 -2099 -2107 -2123 -2150 -44 -75 -79 -178
-93 -273 -20 -130 9 -277 82 -418 29 -54 285 -315 2131 -2162 l2098 -2100 0
4598 c0 2528 -1 4597 -3 4597 -1 0 -943 -942 -2092 -2092z"/>
<path d="M33465 25081 c-3 -5 -1 -12 5 -16 5 -3 10 1 10 9 0 18 -6 21 -15 7z"/>
<path d="M33490 25078 c0 -4 5 -9 10 -9 32 -4 40 -3 40 6 0 5 -11 10 -25 11
-14 0 -25 -3 -25 -8z"/>
<path d="M33565 25079 c4 -5 11 -7 16 -4 5 3 6 -1 3 -9 -3 -9 -11 -13 -17 -9
-6 3 -7 1 -3 -5 8 -14 36 -4 33 11 -1 9 75 13 283 17 l285 6 -303 1 c-191 1
-300 -2 -297 -8z"/>
<path d="M34176 25079 c2 -4 -2 -10 -8 -13 -7 -3 -3 -3 10 0 14 3 22 1 22 -7
0 -7 2 -10 5 -7 9 9 -5 35 -20 35 -8 0 -12 -4 -9 -8z"/>
<path d="M34170 25020 c0 -13 11 -13 30 0 12 8 11 10 -7 10 -13 0 -23 -4 -23
-10z"/>
<path d="M45390 21720 c-9 -6 -10 -10 -3 -10 6 0 15 5 18 10 8 12 4 12 -15 0z"/>
<path d="M45369 21697 c6 -8 7 -18 3 -22 -4 -5 -1 -5 6 -1 10 6 10 11 1 22 -6
8 -14 14 -16 14 -3 0 0 -6 6 -13z"/>
<path d="M45410 21700 c0 -6 7 -10 15 -10 8 0 15 2 15 4 0 2 -7 6 -15 10 -8 3
-15 1 -15 -4z"/>
<path d="M44330 21666 c0 -2 8 -10 18 -17 15 -13 16 -12 3 4 -13 16 -21 21
-21 13z"/>
<path d="M1 7255 l0 -6610 2909 2915 c1678 1681 2908 2921 2905 2928 -3 8 0
10 7 6 8 -5 9 0 5 15 -4 18 -3 20 9 10 13 -10 18 -6 15 14 0 4 2 6 6 5 17 -5
54 24 49 37 -3 8 0 17 6 21 7 4 8 3 4 -4 -4 -7 -2 -12 4 -12 6 0 10 8 8 18 -2
11 3 16 15 14 11 -2 17 4 17 18 0 11 -4 20 -10 20 -5 0 -13 0 -17 0 -4 0 -8
-7 -9 -17 -4 -22 -32 -43 -58 -43 -21 0 -21 0 -21 663 0 430 4 665 10 669 16
12 25 9 25 -7 0 -8 -5 -15 -11 -15 -5 0 -7 5 -3 12 4 7 3 8 -4 4 -21 -13 -12
-26 16 -24 15 1 33 -1 39 -5 6 -4 14 0 17 9 9 22 0 30 -18 15 -10 -8 -16 -9
-21 -1 -3 5 1 13 9 16 9 3 13 10 10 16 -3 5 -11 4 -20 -3 -11 -9 -15 -8 -20 5
-4 10 -13 15 -20 12 -8 -3 -14 -1 -14 4 0 6 7 10 15 10 8 0 15 5 15 11 0 6 -9
8 -22 3 -19 -6 -21 -5 -11 8 7 8 10 18 6 22 -4 4 -13 -4 -20 -16 -12 -22 -12
-22 -8 9 3 33 -13 56 -35 51 -7 -2 -14 6 -16 16 -4 24 -103 125 -3211 3236
l-2553 2555 1 -6610z m5726 843 c-3 -8 -6 -5 -6 6 -1 11 2 17 5 13 3 -3 4 -12
1 -19z m62 -114 c-14 -13 -16 -13 -16 0 0 8 4 13 9 10 4 -3 8 0 8 7 0 7 3 9 7
5 4 -3 0 -13 -8 -22z m66 -1413 c3 -5 2 -12 -3 -15 -5 -3 -9 1 -9 9 0 17 3 19
12 6z m30 -1 c3 -5 1 -10 -4 -10 -6 0 -11 5 -11 10 0 6 2 10 4 10 3 0 8 -4 11
-10z"/>
<path d="M15154 9030 c-72 -13 -173 -51 -241 -91 -45 -26 -794 -768 -3276
-3249 -1770 -1768 -3238 -3242 -3262 -3275 -98 -137 -129 -236 -129 -410 1
-102 5 -132 27 -200 54 -165 36 -144 896 -1007 l795 -798 5301 0 5300 0 614
614 c337 337 611 618 607 624 -3 5 1 13 10 16 10 4 13 2 7 -7 -4 -6 13 8 38
33 25 25 44 48 42 53 -2 4 3 7 11 7 9 0 16 7 16 15 0 8 4 15 9 15 5 0 11 9 14
20 4 17 0 19 -32 17 -20 -1 -41 -6 -47 -12 -15 -13 -12 -44 6 -55 11 -7 10 -9
-8 -7 l-22 1 0 682 c0 664 0 682 19 687 14 3 18 1 14 -9 -3 -8 -9 -12 -14 -9
-4 3 -7 -11 -6 -32 2 -34 5 -38 28 -39 15 -1 34 -4 42 -7 8 -3 18 0 21 8 3 10
0 12 -12 8 -14 -6 -15 -4 -4 9 11 13 8 21 -20 49 -18 18 -38 32 -45 31 -6 -1
-15 3 -19 9 -5 8 -3 9 7 4 8 -5 5 1 -5 13 -24 28 -29 28 -21 1 5 -15 4 -19 -4
-15 -6 4 -11 19 -11 34 0 22 -47 74 -246 272 -135 135 -1486 1489 -3002 3009
-1516 1520 -2790 2792 -2830 2827 -80 68 -184 124 -277 149 -74 20 -222 27
-291 15z m6750 -6391 c-6 -10 -42 23 -36 34 2 5 12 1 23 -9 10 -9 16 -20 13
-25z m-7 -1261 c-3 -14 -12 -22 -28 -25 -16 -2 -20 0 -11 6 8 4 14 12 15 17 1
5 5 8 10 7 4 -2 7 2 7 7 0 6 2 10 5 10 3 0 3 -10 2 -22z m-57 -68 c-8 -5 -11
-10 -5 -10 16 0 -10 -20 -32 -24 -12 -3 -20 1 -20 10 0 8 4 14 9 14 4 0 8 -4
8 -10 0 -5 8 -6 17 -3 12 5 13 8 4 11 -11 4 -11 6 0 13 8 5 19 9 24 9 6 0 3
-5 -5 -10z"/>
<path d="M5935 7873 c-7 -21 -7 -23 10 -23 8 0 15 -7 15 -15 0 -8 -3 -15 -7
-15 -5 0 -8 -255 -8 -567 l0 -568 -5 565 c-3 324 -1 570 4 578 6 9 4 11 -8 6
-15 -6 -16 -58 -16 -588 0 -575 0 -582 20 -583 11 -1 20 2 20 7 0 5 6 8 13 6
6 -1 9 -1 4 2 -4 2 -8 265 -8 585 -1 320 -1 591 -1 603 0 23 -24 28 -33 7z"/>
<path d="M6006 7822 c-3 -5 1 -9 9 -9 8 0 12 4 9 9 -3 4 -7 8 -9 8 -2 0 -6 -4
-9 -8z"/>
<path d="M6018 7773 c10 -4 10 -8 0 -21 -12 -16 -11 -16 6 -2 11 8 21 14 23
13 1 -2 9 -3 16 -2 16 1 -24 18 -43 18 -11 -1 -11 -2 -2 -6z"/>
<path d="M6080 7756 c0 -2 8 -10 18 -17 15 -13 16 -12 3 4 -13 16 -21 21 -21
13z"/>
<path d="M6100 7696 c0 -2 7 -7 16 -10 8 -3 12 -2 9 4 -6 10 -25 14 -25 6z"/>
<path d="M6105 6780 c-4 -6 -10 -8 -15 -5 -5 3 -12 0 -16 -6 -4 -7 -3 -9 4 -5
5 3 12 2 14 -4 2 -6 9 -1 16 10 7 11 10 20 8 20 -3 0 -8 -5 -11 -10z"/>
<path d="M7475 6771 c-92 -22 -185 -67 -260 -124 -33 -25 -391 -378 -796 -784
-549 -551 -745 -753 -772 -798 -116 -195 -129 -452 -33 -651 18 -38 54 -96 79
-130 69 -91 1493 -1503 1563 -1549 169 -112 386 -142 582 -80 160 51 150 42
898 790 379 379 730 733 778 785 75 80 85 95 69 101 -16 7 -15 8 5 8 12 1 22
6 22 12 0 5 -4 8 -10 4 -6 -3 -9 132 -10 362 0 338 -2 369 -19 397 -10 17 -24
30 -30 28 -7 -1 -9 2 -5 9 4 7 -286 303 -747 764 l-754 753 -95 46 c-154 75
-313 95 -465 57z"/>
<path d="M9600 5037 c0 -16 9 -28 28 -36 l27 -12 -23 19 c-15 12 -21 24 -16
35 3 10 1 17 -5 17 -6 0 -11 -11 -11 -23z"/>
<path d="M9600 4984 c0 -8 5 -12 10 -9 6 4 8 11 5 16 -9 14 -15 11 -15 -7z"/>
<path d="M9647 4939 c7 -7 15 -10 18 -7 3 3 -2 9 -12 12 -14 6 -15 5 -6 -5z"/>
<path d="M9609 4730 c-1 -110 -2 -205 -3 -212 -1 -6 5 -13 13 -16 8 -3 11 0 7
7 -4 6 -7 104 -6 216 0 113 -2 205 -5 205 -3 0 -6 -90 -6 -200z"/>
<path d="M9615 4440 c3 -5 11 -10 16 -10 6 0 7 5 4 10 -3 6 -11 10 -16 10 -6
0 -7 -4 -4 -10z"/>
<path d="M9603 4396 c0 -12 5 -23 12 -23 7 0 10 8 7 19 -7 28 -19 31 -19 4z"/>
<path d="M21927 2573 c-4 -3 -6 -252 -5 -552 1 -300 3 -508 5 -461 3 76 9
1020 7 1020 0 0 -4 -3 -7 -7z"/>
<path d="M22086 1553 c-6 -14 -5 -15 5 -6 7 7 10 15 7 18 -3 3 -9 -2 -12 -12z"/>
<path d="M22000 1494 c-8 -8 -9 -14 -4 -13 21 4 28 -2 14 -11 -8 -5 -10 -10
-4 -10 6 0 17 7 24 16 11 12 11 15 -1 12 -8 -2 -13 3 -11 10 3 16 -3 15 -18
-4z"/>
<path d="M21958 1468 c10 -13 9 -18 -5 -29 -9 -8 -14 -9 -10 -3 4 7 1 17 -7
23 -11 9 -12 6 -9 -13 6 -29 33 -44 34 -18 0 15 1 15 7 1 6 -14 9 -14 26 2 18
17 17 18 -5 12 -15 -3 -20 -2 -12 4 9 6 6 12 -10 22 -19 13 -21 12 -9 -1z"/>
</g>
</svg>
